<mxfile host="app.diagrams.net" agent="Mozilla/5.0 (Macintosh; Intel Mac OS X 10_15_7) AppleWebKit/605.1.15 (KHTML, like Gecko) Version/18.6 Safari/605.1.15" version="28.2.3">
  <diagram name="Page-1" id="0gjmqYgw8vVC5M4p6Q5U">
    <mxGraphModel dx="931" dy="550" grid="1" gridSize="10" guides="1" tooltips="1" connect="1" arrows="1" fold="1" page="1" pageScale="1" pageWidth="827" pageHeight="1169" math="0" shadow="0">
      <root>
        <mxCell id="0" />
        <mxCell id="1" parent="0" />
        <mxCell id="H2dep2q6h2Lm-5mGX2D2-2" value="" style="sketch=0;points=[[0,0,0],[0.25,0,0],[0.5,0,0],[0.75,0,0],[1,0,0],[0,1,0],[0.25,1,0],[0.5,1,0],[0.75,1,0],[1,1,0],[0,0.25,0],[0,0.5,0],[0,0.75,0],[1,0.25,0],[1,0.5,0],[1,0.75,0]];outlineConnect=0;dashed=0;verticalLabelPosition=bottom;verticalAlign=top;align=center;html=1;fontSize=12;fontStyle=0;aspect=fixed;shape=mxgraph.aws4.resourceIcon;resIcon=mxgraph.aws4.api_gateway;" parent="1" vertex="1">
          <mxGeometry x="200" y="265" width="78" height="78" as="geometry" />
        </mxCell>
        <mxCell id="1yLUU9JP1n_1UrEdNb5V-1" value="" style="endArrow=classic;html=1;rounded=0;entryX=0;entryY=0.5;entryDx=0;entryDy=0;entryPerimeter=0;" edge="1" parent="1" source="H2dep2q6h2Lm-5mGX2D2-1" target="H2dep2q6h2Lm-5mGX2D2-2">
          <mxGeometry width="50" height="50" relative="1" as="geometry">
            <mxPoint x="390" y="310" as="sourcePoint" />
            <mxPoint x="440" y="260" as="targetPoint" />
          </mxGeometry>
        </mxCell>
        <mxCell id="1yLUU9JP1n_1UrEdNb5V-2" value="" style="endArrow=classic;html=1;rounded=0;exitX=1;exitY=0.5;exitDx=0;exitDy=0;exitPerimeter=0;entryX=0;entryY=0.5;entryDx=0;entryDy=0;" edge="1" parent="1" source="H2dep2q6h2Lm-5mGX2D2-2" target="H2dep2q6h2Lm-5mGX2D2-3">
          <mxGeometry width="50" height="50" relative="1" as="geometry">
            <mxPoint x="390" y="310" as="sourcePoint" />
            <mxPoint x="440" y="260" as="targetPoint" />
          </mxGeometry>
        </mxCell>
        <mxCell id="1yLUU9JP1n_1UrEdNb5V-3" value="" style="endArrow=classic;html=1;rounded=0;exitX=1;exitY=0.5;exitDx=0;exitDy=0;exitPerimeter=0;entryX=0;entryY=0.5;entryDx=0;entryDy=0;" edge="1" parent="1" source="H2dep2q6h2Lm-5mGX2D2-2" target="H2dep2q6h2Lm-5mGX2D2-4">
          <mxGeometry width="50" height="50" relative="1" as="geometry">
            <mxPoint x="390" y="310" as="sourcePoint" />
            <mxPoint x="440" y="260" as="targetPoint" />
          </mxGeometry>
        </mxCell>
        <mxCell id="1yLUU9JP1n_1UrEdNb5V-5" value="" style="image;sketch=0;aspect=fixed;html=1;points=[];align=center;fontSize=12;image=img/lib/mscae/Cache_Redis_Product.svg;" vertex="1" parent="1">
          <mxGeometry x="615" y="278" width="50" height="42" as="geometry" />
        </mxCell>
        <mxCell id="1yLUU9JP1n_1UrEdNb5V-6" value="" style="endArrow=classic;html=1;rounded=0;exitX=1;exitY=0.5;exitDx=0;exitDy=0;entryX=0.017;entryY=0.559;entryDx=0;entryDy=0;entryPerimeter=0;" edge="1" parent="1" source="H2dep2q6h2Lm-5mGX2D2-3" target="1yLUU9JP1n_1UrEdNb5V-10">
          <mxGeometry width="50" height="50" relative="1" as="geometry">
            <mxPoint x="390" y="310" as="sourcePoint" />
            <mxPoint x="610" y="229" as="targetPoint" />
          </mxGeometry>
        </mxCell>
        <mxCell id="1yLUU9JP1n_1UrEdNb5V-7" value="" style="endArrow=classic;html=1;rounded=0;exitX=1;exitY=0.5;exitDx=0;exitDy=0;entryX=-0.06;entryY=0.524;entryDx=0;entryDy=0;entryPerimeter=0;" edge="1" parent="1" source="H2dep2q6h2Lm-5mGX2D2-4" target="1yLUU9JP1n_1UrEdNb5V-11">
          <mxGeometry width="50" height="50" relative="1" as="geometry">
            <mxPoint x="390" y="310" as="sourcePoint" />
            <mxPoint x="440" y="260" as="targetPoint" />
          </mxGeometry>
        </mxCell>
        <mxCell id="1yLUU9JP1n_1UrEdNb5V-8" value="" style="endArrow=classic;html=1;rounded=0;exitX=1;exitY=0.5;exitDx=0;exitDy=0;entryX=0;entryY=0.476;entryDx=0;entryDy=0;entryPerimeter=0;" edge="1" parent="1" source="H2dep2q6h2Lm-5mGX2D2-3" target="1yLUU9JP1n_1UrEdNb5V-5">
          <mxGeometry width="50" height="50" relative="1" as="geometry">
            <mxPoint x="390" y="310" as="sourcePoint" />
            <mxPoint x="440" y="260" as="targetPoint" />
          </mxGeometry>
        </mxCell>
        <mxCell id="1yLUU9JP1n_1UrEdNb5V-10" value="" style="image;aspect=fixed;html=1;points=[];align=center;fontSize=12;image=img/lib/azure2/databases/Azure_Database_PostgreSQL_Server_Group.svg;" vertex="1" parent="1">
          <mxGeometry x="615" y="159" width="60" height="68" as="geometry" />
        </mxCell>
        <mxCell id="1yLUU9JP1n_1UrEdNb5V-11" value="" style="image;sketch=0;aspect=fixed;html=1;points=[];align=center;fontSize=12;image=img/lib/mscae/Cache_Redis_Product.svg;" vertex="1" parent="1">
          <mxGeometry x="620" y="364" width="50" height="42" as="geometry" />
        </mxCell>
        <mxCell id="1yLUU9JP1n_1UrEdNb5V-12" value="" style="group" vertex="1" connectable="0" parent="1">
          <mxGeometry x="362" y="356" width="120" height="60" as="geometry" />
        </mxCell>
        <mxCell id="H2dep2q6h2Lm-5mGX2D2-4" value="" style="rounded=1;whiteSpace=wrap;html=1;" parent="1yLUU9JP1n_1UrEdNb5V-12" vertex="1">
          <mxGeometry width="120" height="60" as="geometry" />
        </mxCell>
        <mxCell id="H2dep2q6h2Lm-5mGX2D2-6" value="Analytics Service" style="text;html=1;align=center;verticalAlign=middle;whiteSpace=wrap;rounded=0;" parent="1yLUU9JP1n_1UrEdNb5V-12" vertex="1">
          <mxGeometry x="30" y="15" width="60" height="30" as="geometry" />
        </mxCell>
        <mxCell id="1yLUU9JP1n_1UrEdNb5V-14" value="" style="group;fontStyle=1" vertex="1" connectable="0" parent="1">
          <mxGeometry x="38" y="280" width="60" height="76" as="geometry" />
        </mxCell>
        <mxCell id="H2dep2q6h2Lm-5mGX2D2-1" value="" style="sketch=0;pointerEvents=1;shadow=0;dashed=0;html=1;strokeColor=none;fillColor=#505050;labelPosition=center;verticalLabelPosition=bottom;verticalAlign=top;outlineConnect=0;align=center;shape=mxgraph.office.devices.mac_client;" parent="1yLUU9JP1n_1UrEdNb5V-14" vertex="1">
          <mxGeometry x="2" width="58" height="48" as="geometry" />
        </mxCell>
        <mxCell id="1yLUU9JP1n_1UrEdNb5V-13" value="Client" style="text;html=1;align=center;verticalAlign=middle;whiteSpace=wrap;rounded=0;fontStyle=1" vertex="1" parent="1yLUU9JP1n_1UrEdNb5V-14">
          <mxGeometry y="49" width="60" height="30" as="geometry" />
        </mxCell>
        <mxCell id="1yLUU9JP1n_1UrEdNb5V-15" value="" style="group" vertex="1" connectable="0" parent="1">
          <mxGeometry x="354" y="200" width="120" height="60" as="geometry" />
        </mxCell>
        <mxCell id="H2dep2q6h2Lm-5mGX2D2-3" value="" style="rounded=1;whiteSpace=wrap;html=1;" parent="1yLUU9JP1n_1UrEdNb5V-15" vertex="1">
          <mxGeometry width="120" height="60" as="geometry" />
        </mxCell>
        <mxCell id="H2dep2q6h2Lm-5mGX2D2-5" value="URL Shortener Service" style="text;html=1;align=center;verticalAlign=middle;whiteSpace=wrap;rounded=0;" parent="1yLUU9JP1n_1UrEdNb5V-15" vertex="1">
          <mxGeometry x="17" y="15" width="86" height="30" as="geometry" />
        </mxCell>
        <mxCell id="1yLUU9JP1n_1UrEdNb5V-16" value="Postgres Cluster" style="text;html=1;align=center;verticalAlign=middle;whiteSpace=wrap;rounded=0;fontStyle=1" vertex="1" parent="1">
          <mxGeometry x="590" y="227" width="110" height="30" as="geometry" />
        </mxCell>
        <mxCell id="1yLUU9JP1n_1UrEdNb5V-17" value="API Gateway" style="text;html=1;align=center;verticalAlign=middle;whiteSpace=wrap;rounded=0;" vertex="1" parent="1">
          <mxGeometry x="199" y="343" width="79" height="30" as="geometry" />
        </mxCell>
        <mxCell id="1yLUU9JP1n_1UrEdNb5V-18" value="GET" style="text;html=1;align=center;verticalAlign=middle;whiteSpace=wrap;rounded=0;" vertex="1" parent="1">
          <mxGeometry x="320" y="270" width="60" height="30" as="geometry" />
        </mxCell>
        <mxCell id="1yLUU9JP1n_1UrEdNb5V-19" value="POST" style="text;html=1;align=center;verticalAlign=middle;whiteSpace=wrap;rounded=0;" vertex="1" parent="1">
          <mxGeometry x="260" y="227" width="60" height="30" as="geometry" />
        </mxCell>
        <mxCell id="1yLUU9JP1n_1UrEdNb5V-20" value="Redis Cluster" style="text;html=1;align=center;verticalAlign=middle;whiteSpace=wrap;rounded=0;" vertex="1" parent="1">
          <mxGeometry x="603" y="320" width="80" height="30" as="geometry" />
        </mxCell>
        <mxCell id="1yLUU9JP1n_1UrEdNb5V-21" value="Redis Cache" style="text;html=1;align=center;verticalAlign=middle;whiteSpace=wrap;rounded=0;" vertex="1" parent="1">
          <mxGeometry x="609" y="406" width="75" height="30" as="geometry" />
        </mxCell>
      </root>
    </mxGraphModel>
  </diagram>
</mxfile>
